<?xml version="1.0" encoding="utf-8"?>
<!-- Generator: Adobe Illustrator 21.1.0, SVG Export Plug-In . SVG Version: 6.00 Build 0)  -->
<svg version="1.1" id="Layer_1" xmlns="http://www.w3.org/2000/svg" xmlns:xlink="http://www.w3.org/1999/xlink" x="0px" y="0px"
	 viewBox="0 0 327.4 275.8" style="enable-background:new 0 0 327.4 275.8;" xml:space="preserve">
<style type="text/css">
	.st0{stroke:#000000;stroke-miterlimit:10;}
	.st1{fill:none;}
	.st2{fill:#ED1C24;}
	.st3{fill:#FFFFFF;}
	.st4{fill:none;stroke:#000000;stroke-width:3;stroke-miterlimit:10;}
</style>
<path class="st0" d="M190.8,90.9l53.8-55.3c0.2-0.2,0.5-0.2,0.7,0c1.5,1.2,10.1,7.8,10.1,7.8c0.5,0.2,1.3,0.1,1.2-0.5L256,26.9
	c0.1-0.4,0.6-0.6,0.9-0.4l9.5,11.7c0.3,0.4,1,0.3,1.1-0.3c0,0,3.6-10.9,4-12.3c0-0.1,0.2-0.3,0.3-0.3L324.1,11
	c3.6-1.8,2.7,2.3,2.5,2.7L283.3,101c-0.8,1.5-2,2.8-3.5,3.6l-15.2,4c-1.3,0.7-2.5,1.8-3.3,3.2L163.8,275c-0.3,0.4-0.8,0.4-1.1,0
	l-93-161.2c-0.6-1-3.2-2.7-3.2-2.7L51,106.3c-1.8-0.7-3.2-1.9-4.2-3.6L1.6,4.6c-2.6-4.7,0-4.7,3.2-3.2l108.1,50.3
	c4.6,2.6,16.8,31.9,19,36c0.2,0.4-0.2,0.8-0.6,0.7l-20.8-33.5c-0.1-0.1-0.1-0.1-0.2-0.2L12,11.1c-0.9-0.5-1.9,0.5-1.3,1.4l38.6,88.2
	c0.8,1.3,1.9,2.4,3.3,3c0,0,16,4.4,17.2,5c0.1,0.1,0.2,0.2,0.3,0.3l89.5,148.8c1.6,2.5,6.1,2.6,7.6,0.1l92.9-150.4
	c1.1-1.9,3.1-3.2,5-4.2l11.9-2.6c1.6-0.8,3.1-2.7,4-4.2l36.2-77.1c0.3-0.4-0.1-0.9-0.5-0.8l-43.4,10.3l-4.7,13.4
	c-0.2,0.6-0.9,0.9-1.4,0.5l-8.1-7.5l-0.7,11.3c-0.1,0.6-0.7,0.8-1.2,0.5l-12.1-6.4L233.9,52c-0.1,0-0.2,0.1-0.2,0.2l-19,18.2
	c-0.1,0.1-0.1,0.1-0.2,0.2L191,91.4C190.6,91.5,190.5,91,190.8,90.9z"/>
<polygon points="307.3,127.5 135.5,127.5 135.5,207.6 307.3,208.7 "/>
<g id="rat_crew_studios_3_">
	<rect x="148.7" y="137.2" class="st1" width="154.8" height="48.7"/>
	<path class="st2" d="M177,172.7c-1.7,0.9-5,1.8-9.2,1.8c-9.8,0-17.2-6.8-17.2-19.4c0-12,7.4-20.2,18.2-20.2c4.3,0,7.1,1,8.3,1.7
		l-1.1,4c-1.7-0.9-4.1-1.6-7-1.6c-8.2,0-13.6,5.8-13.6,15.8c0,9.4,4.9,15.4,13.4,15.4c2.7,0,5.5-0.6,7.4-1.6L177,172.7z"/>
	<path class="st2" d="M183.4,136.1c2.3-0.5,5.5-0.8,8.6-0.8c4.8,0,7.9,1,10.1,3.1c1.8,1.7,2.7,4.3,2.7,7.3c0,5.1-2.9,8.4-6.6,9.8
		v0.2c2.7,1,4.3,3.8,5.1,7.7c1.1,5.4,2,9.1,2.7,10.5h-4.7c-0.6-1.1-1.3-4.4-2.3-9.2c-1-5.3-2.9-7.3-7-7.5h-4.2V174h-4.5V136.1z
		 M187.9,153.6h4.6c4.8,0,7.9-2.9,7.9-7.3c0-5-3.3-7.1-8-7.2c-2.2,0-3.7,0.2-4.5,0.5V153.6z"/>
	<path class="st2" d="M230,156h-13.6v13.8h15.1v4.2h-19.6v-38.4h18.8v4.2h-14.3v12.1H230V156z"/>
	<path class="st2" d="M244.2,174l-8.9-38.4h4.8l4.1,19.4c1,4.8,2,9.6,2.6,13.3h0.1c0.6-3.8,1.7-8.4,2.8-13.3l4.7-19.4h4.7l4.2,19.5
		c1,4.6,1.9,9.1,2.4,13.2h0.1c0.7-4.2,1.7-8.5,2.8-13.3l4.6-19.4h4.6l-9.9,38.4h-4.7l-4.4-20c-1.1-4.9-1.8-8.7-2.3-12.5h-0.1
		c-0.6,3.8-1.4,7.6-2.7,12.5l-5,20H244.2z"/>
</g>
<polygon class="st3" points="142.2,208.2 21.4,208.2 21.4,126.6 142.5,126.6 "/>
<polygon class="st4" points="307.3,127.5 21,126.3 20,207.6 307.3,208.7 "/>
<g>
	<path class="st3" d="M166,200.3c0.7,0.5,2,1,3.2,1c1.8,0,2.6-0.9,2.6-2c0-1.2-0.7-1.8-2.5-2.5c-2.4-0.9-3.5-2.2-3.5-3.8
		c0-2.2,1.7-3.9,4.6-3.9c1.4,0,2.5,0.4,3.3,0.8l-0.6,1.8c-0.5-0.3-1.5-0.8-2.7-0.8c-1.4,0-2.2,0.8-2.2,1.8c0,1.1,0.8,1.6,2.5,2.3
		c2.3,0.9,3.5,2.1,3.5,4.1c0,2.4-1.8,4-5,4c-1.5,0-2.8-0.4-3.8-0.9L166,200.3z"/>
	<path class="st3" d="M186.5,185.5v3.9h3.5v1.9h-3.5v7.2c0,1.7,0.5,2.6,1.8,2.6c0.6,0,1.1-0.1,1.4-0.2l0.1,1.8
		c-0.5,0.2-1.2,0.3-2.2,0.3c-1.1,0-2.1-0.4-2.6-1c-0.7-0.7-0.9-1.9-0.9-3.5v-7.3h-2.1v-1.9h2.1v-3.2L186.5,185.5z"/>
	<path class="st3" d="M210.2,199.2c0,1.4,0,2.6,0.1,3.7h-2.2l-0.1-2.2H208c-0.6,1.1-2.1,2.5-4.4,2.5c-2.1,0-4.6-1.2-4.6-5.9v-7.9
		h2.4v7.4c0,2.6,0.8,4.3,3,4.3c1.6,0,2.8-1.1,3.2-2.2c0.1-0.4,0.2-0.8,0.2-1.2v-8.2h2.4V199.2z"/>
	<path class="st3" d="M232.1,183.1v16.2c0,1.2,0,2.6,0.1,3.5H230l-0.1-2.3h-0.1c-0.7,1.5-2.4,2.6-4.6,2.6c-3.2,0-5.7-2.7-5.7-6.8
		c0-4.5,2.7-7.2,6-7.2c2,0,3.4,1,4,2.1h0.1v-8H232.1z M229.6,194.8c0-0.3,0-0.7-0.1-1c-0.4-1.6-1.7-2.8-3.5-2.8c-2.5,0-4,2.2-4,5.2
		c0,2.7,1.3,5,4,5c1.6,0,3.1-1.1,3.6-2.9c0.1-0.3,0.1-0.7,0.1-1.1V194.8z"/>
	<path class="st3" d="M245.1,185.6c0,0.8-0.6,1.5-1.6,1.5c-0.9,0-1.5-0.7-1.5-1.5c0-0.9,0.6-1.5,1.5-1.5
		C244.5,184.1,245.1,184.7,245.1,185.6z M242.4,202.8v-13.4h2.4v13.4H242.4z"/>
	<path class="st3" d="M267.2,196c0,5-3.4,7.1-6.7,7.1c-3.6,0-6.4-2.7-6.4-6.9c0-4.5,2.9-7.1,6.7-7.1
		C264.6,189.1,267.2,191.9,267.2,196z M256.6,196.1c0,2.9,1.7,5.2,4.1,5.2c2.3,0,4.1-2.2,4.1-5.2c0-2.3-1.1-5.2-4-5.2
		C257.8,190.9,256.6,193.6,256.6,196.1z"/>
	<path class="st3" d="M276.2,200.3c0.7,0.5,2,1,3.2,1c1.8,0,2.6-0.9,2.6-2c0-1.2-0.7-1.8-2.5-2.5c-2.4-0.9-3.5-2.2-3.5-3.8
		c0-2.2,1.7-3.9,4.6-3.9c1.4,0,2.5,0.4,3.3,0.8l-0.6,1.8c-0.5-0.3-1.5-0.8-2.7-0.8c-1.4,0-2.2,0.8-2.2,1.8c0,1.1,0.8,1.6,2.5,2.3
		c2.3,0.9,3.5,2.1,3.5,4.1c0,2.4-1.8,4-5,4c-1.5,0-2.8-0.4-3.8-0.9L276.2,200.3z"/>
</g>
<g>
	<path d="M27.8,146.3c2.7-0.7,6.7-1.1,10.4-1.1c5.8,0,9.5,1.3,12.2,4.2c2.1,2.3,3.3,5.8,3.3,9.7c0,6.8-3.5,11.3-7.9,13.1v0.2
		c3.2,1.4,5.2,5,6.2,10.3c1.4,7.1,2.4,12.1,3.2,14.1h-5.6c-0.7-1.4-1.6-5.9-2.8-12.2c-1.2-7.1-3.5-9.7-8.4-10h-5.1v22.2h-5.4V146.3z
		 M33.2,169.7h5.5c5.8,0,9.5-3.9,9.5-9.7c0-6.6-3.9-9.5-9.7-9.6c-2.6,0-4.5,0.3-5.4,0.6V169.7z"/>
	<path d="M79.4,196.9l-0.4-4.6h-0.2c-1.7,2.9-4.9,5.5-9.2,5.5c-6.1,0-9.2-5.2-9.2-10.6c0-8.9,6.5-13.8,18.1-13.7v-0.8
		c0-3-0.7-8.5-6.9-8.5c-2.8,0-5.7,1.1-7.9,2.7l-1.2-4.4c2.5-2,6.1-3.3,9.9-3.3c9.2,0,11.5,7.7,11.5,15.1v13.8c0,3.2,0.1,6.3,0.5,8.8
		H79.4z M78.6,178.1c-6-0.2-12.8,1.1-12.8,8.3c0,4.3,2.4,6.4,5.2,6.4c3.9,0,6.4-3,7.3-6.2c0.2-0.7,0.3-1.4,0.3-2.1V178.1z"/>
	<path d="M98.8,151.3H86v-5.6h31.1v5.6h-12.8v45.6h-5.5V151.3z"/>
</g>
<g>
</g>
<g>
</g>
<g>
</g>
<g>
</g>
<g>
</g>
<g>
</g>
</svg>
