<?xml version="1.0" encoding="utf-8"?>
<!-- Generator: Adobe Illustrator 21.1.0, SVG Export Plug-In . SVG Version: 6.00 Build 0)  -->
<svg version="1.1" id="Layer_1" xmlns="http://www.w3.org/2000/svg" xmlns:xlink="http://www.w3.org/1999/xlink" x="0px" y="0px"
	 viewBox="0 0 326.4 274.8" style="enable-background:new 0 0 326.4 274.8;" xml:space="preserve">
<path d="M264.1,108.1l15.2-4c1.5-0.8,2.7-2.1,3.5-3.6l43.3-87.2c0.3-0.4,1.2-4.5-2.5-2.7L271.4,25c-0.1,0.1-0.2,0.2-0.3,0.3
	c-0.4,1.3-4,12.3-4,12.3c-0.1,0.5-0.8,0.7-1.1,0.3l-9.5-11.7c-0.3-0.3-0.8-0.1-0.9,0.4l0.6,15.5l-0.1,0.9c-0.2,0.2-0.7,0.2-1,0.1
	c0,0-8.6-6.6-10.1-7.8c-0.2-0.2-0.5-0.1-0.7,0L210,70l-54.1,49.3l-33-50.3c-3.9-8.3-8.2-16.5-10.5-17.8L4.3,0.9
	C1-0.6-1.5-0.7,1.1,4.1l45.3,98.1c0.9,1.7,2.4,2.9,4.2,3.6l15.6,4.9c0,0,2.6,1.7,3.2,2.7l7.3,12.7l-56.1-0.2l-0.9,81.4l1.3,0v0.5
	h102.7l38.5,66.8c0.3,0.4,0.8,0.4,1.1,0l39.9-66.7l103.7,0.4h0l0.1-81.2l-55.3-0.2l9.3-15.6C261.6,109.9,262.7,108.8,264.1,108.1z"
	/>
<g>
</g>
<g>
</g>
<g>
</g>
<g>
</g>
<g>
</g>
<g>
</g>
</svg>
