<?xml version="1.0" encoding="utf-8"?>
<!-- Generator: Adobe Illustrator 22.1.0, SVG Export Plug-In . SVG Version: 6.00 Build 0)  -->
<svg version="1.1" id="Layer_1" xmlns="http://www.w3.org/2000/svg" xmlns:xlink="http://www.w3.org/1999/xlink" x="0px" y="0px"
	 viewBox="0 0 179 149" style="enable-background:new 0 0 179 149;" xml:space="preserve">
<style type="text/css">
	.st0{stroke:#000000;stroke-miterlimit:10;}
	.st1{fill:#CC2229;}
	.st2{fill:#FFFFFF;}
	.st3{fill:none;stroke:#000000;stroke-width:3;stroke-miterlimit:10;}
</style>
<path class="st0" d="M98.7,52.6L124.5,26c0.1-0.1,0.2-0.1,0.3,0c0.7,0.6,4.9,3.8,4.9,3.8c0.2,0.1,0.6,0,0.6-0.2l-0.3-7.6
	c0-0.2,0.3-0.3,0.4-0.2l4.6,5.6c0.2,0.2,0.5,0.1,0.5-0.1c0,0,1.7-5.2,1.9-5.9c0-0.1,0.1-0.1,0.1-0.2l25-6.9c1.7-0.8,1.3,1.1,1.2,1.3
	l-20.7,41.8c-0.4,0.7-1,1.3-1.7,1.7l-7.3,1.9c-0.6,0.4-1.2,0.9-1.6,1.5l-46.8,78.3c-0.1,0.2-0.4,0.2-0.5,0L40.7,63.6
	c-0.3-0.5-1.5-1.3-1.5-1.3L31.7,60c-0.8-0.3-1.6-0.9-2-1.7L8,11.2C6.8,8.9,8,9,9.5,9.7l51.8,24.1c2.2,1.2,8,15.3,9.1,17.3
	c0.1,0.2-0.1,0.4-0.3,0.3l-10-16c0,0-0.1-0.1-0.1-0.1L13,14.3c-0.4-0.2-0.9,0.3-0.6,0.7l18.5,42.3c0.4,0.6,0.9,1.1,1.6,1.4
	c0,0,7.6,2.1,8.3,2.4c0.1,0,0.1,0.1,0.1,0.1l42.9,71.3c0.8,1.2,2.9,1.2,3.7,0.1L132,60.6c0.5-0.9,1.5-1.5,2.4-2l5.7-1.2
	c0.8-0.4,1.5-1.3,1.9-2l17.4-37c0.1-0.2,0-0.4-0.3-0.4l-20.8,4.9l-2.3,6.4c-0.1,0.3-0.4,0.4-0.7,0.2l-3.9-3.6l-0.3,5.4
	c-0.1,0.3-0.4,0.4-0.6,0.3l-5.8-3l-5.4,5.4c0,0-0.1,0-0.1,0.1l-9.1,8.7c0,0-0.1,0.1-0.1,0.1l-11.3,10C98.7,52.8,98.6,52.6,98.7,52.6
	z"/>
<polygon points="154.6,70.1 72.2,70.1 72.2,108.5 154.6,109.1 "/>
<g>
	<path class="st1" d="M87.9,94.6c-5.1,0-8.4-3.8-8.4-9.4c0-3.9,1.4-7,3.9-8.8c1.9-1.3,4.8-2.1,5.1-2.1c1.9,0,3.8,0.5,5.4,1.4
		l-1.2,3.8c-0.1,0-1.2,0-1.3,0l-3.1-1.7h0c-2.6,0-4.1,2.3-4.1,6.3c0,4.2,1.8,6.5,5,6.5c1.4,0,2.9-0.4,4.2-1.3l1,3.2
		C92.1,93.9,90.1,94.6,87.9,94.6z"/>
	<path class="st1" d="M106.3,86.4c1.7,2,3.4,4,4.8,5.4c0,0.1,0,2.1,0,2.2l-4.2,0.1c-0.9-1.6-2.5-4-4.2-6.3c-0.4,0-0.9,0-1.5-0.1
		c0,2.5,0.1,4.9,0.2,6.3h-4.7c0.1-1.9,0.2-5.5,0.2-9v-1.3c0-3.5-0.1-7.1-0.2-9h0.9c1.6,0,5.7-0.4,6-0.4c3.9,0,6.5,2.5,6.5,6.1
		c0,2.3-1,4.2-3,5.4C106.7,86.1,106.5,86.2,106.3,86.4z M105.6,81.2c0-2.1-1.1-3.4-3-3.4c-0.4,0-0.9,0-1.5,0.1c0,1.5,0,3.5,0,5.8
		v0.8c0.6,0,1.2,0.1,1.5,0.1C104.4,84.6,105.6,83.4,105.6,81.2z"/>
	<path class="st1" d="M125.8,94.1c-2.3-0.1-5-0.1-6.9-0.1h-5.3c0.1-1.9,0.2-5.5,0.2-9v-1.3c0-3.5-0.1-7.1-0.2-9l4.6,0.1
		c0.3,0,0.6,0,0.9,0c2.5,0,5.2-0.1,6.5-0.1l-0.4,3.7c-0.1,0.1-1.4,0.2-1.5,0.2c-0.9-0.2-2.6-0.4-4.2-0.4c-0.4,0-0.8,0-1.2,0
		c0,1.3,0,2.9-0.1,4.4c2.4,0,4.4-0.1,5.2-0.2l-0.3,3.7c-0.9-0.1-2.8-0.2-4.9-0.2c0,1.7,0,3.3,0.1,4.8c0.6,0,1.2,0,1.7,0
		c1.8,0,3.7-0.1,4.8-0.4c0.1,0,1.4,0.1,1.5,0.1L125.8,94.1z"/>
	<path class="st1" d="M142.7,94.1c-1-4.1-2.2-8.7-3.2-12.6c-1,3.9-2.1,8.4-3.1,12.5l-4,0.1c-1.5-5.8-3.4-12.6-4.8-17.1
		c0-0.1,0-2.1,0-2.2h4.2c0.2,1.4,1.4,7,3,14.3c1.7-7.3,2.8-12.9,3.1-14.3l4-0.1c0.2,1.5,1.5,7,3.2,14.4c1.5-7.4,2.6-12.9,2.8-14.4
		h3.9c0,0.1,0,2.1,0,2.2c-1.5,4.5-3.5,11.3-5.1,17L142.7,94.1z"/>
</g>
<polygon class="st2" points="75.4,108.8 17.5,108.8 17.5,69.7 75.6,69.7 "/>
<polygon class="st3" points="154.6,70.1 17.3,69.5 16.9,108.5 154.6,109.1 "/>
<g>
	<path class="st2" d="M79.3,104.7c0.3,0.4,1.1,0.9,2,0.9c1.1,0,1.6-0.7,1.6-1.5c0-0.7-0.2-1.1-1.2-1.8l-0.6-0.4
		c-1.2-0.8-1.6-1.5-1.6-2.3c0-1.2,0.9-2.2,2.6-2.2c0.5,0,0.9,0.1,1.1,0.1c0.3,0.1,0.5,0.1,0.6,0.1c0,0.1-0.1,0.7-0.1,1.2
		c-0.2-0.3-0.8-0.7-1.7-0.7c-0.9,0-1.4,0.5-1.4,1.2c0,0.6,0.1,1,1.2,1.7l0.6,0.4c1.4,0.9,1.7,1.6,1.7,2.4c0,0.5-0.3,1.4-1.1,2
		c-0.5,0.3-1.2,0.5-1.8,0.5c-0.8,0-1.5-0.2-1.9-0.5C79.2,105.8,79.3,105.1,79.3,104.7z"/>
	<path class="st2" d="M88.2,97.6c0.3,0.1,0.7,0.1,1.8,0.1h3.8c0.7,0,1.6,0,1.8-0.1c-0.1,0.3-0.1,0.8-0.1,1.1
		c-0.2-0.1-0.5-0.2-1.3-0.2c-0.5,0-1-0.1-1.8-0.1v4.5c0,1.4,0.1,2.9,0.1,3.3c-0.1,0-0.3,0-0.5,0c-0.3,0-0.6,0-0.8,0
		c0.1-0.4,0.1-1.8,0.1-3.3v-4.5c-0.5,0-0.8,0-1.6,0c-0.8,0-1.3,0.1-1.6,0.2C88,98.5,88.1,97.9,88.2,97.6z"/>
	<path class="st2" d="M100.5,97.7c0.3,0,0.7,0,0.8,0c-0.1,0.4-0.1,1.7-0.1,3.3v1.6c0,1.5,0.3,2.1,0.8,2.5c0.5,0.5,1.2,0.6,1.8,0.6
		c0.5,0,1.2-0.1,1.7-0.6c0.6-0.6,0.7-1.4,0.7-2.7V101c0-1.6-0.1-2.8-0.1-3.3c0.1,0,0.4,0,0.5,0c0.3,0,0.5,0,0.6,0
		c-0.1,0.4-0.1,1.7-0.1,3.3v1.3c0,1.3-0.1,2.6-1.1,3.4c-0.7,0.6-1.6,0.7-2.4,0.7c-0.8,0-1.8-0.2-2.5-0.8c-0.6-0.5-1-1.3-1-2.9V101
		c0-1.6-0.1-3-0.1-3.3C100.1,97.7,100.3,97.7,100.5,97.7z"/>
	<path class="st2" d="M112.9,101c0-2.1-0.1-3-0.1-3.2c0.1,0,0.4,0,0.6,0c0.3,0,1-0.1,1.8-0.1c1.6,0,3.2,0.2,4.4,1.3
		c0.6,0.6,1.1,1.5,1.1,2.9c0,1.4-0.6,2.4-1.2,3.1c-0.6,0.6-1.7,1.3-3.7,1.3c-0.5,0-0.9,0-1.4-0.1c-0.6-0.1-1-0.1-1.6-0.1
		c0-0.5,0.1-1.5,0.1-3.2V101z M114,102.6c0,1.2,0,2.1,0,2.4c0,0.3,0,0.3,0.1,0.4c0.2,0.1,0.9,0.3,1.8,0.3c0.9,0,1.8-0.2,2.5-0.8
		c0.6-0.5,1.1-1.5,1.1-2.7c0-0.9-0.2-1.8-0.8-2.5c-0.8-0.9-2.1-1.3-3.6-1.3c-0.4,0-0.9,0-1,0.1c0,0-0.1,0-0.1,0.1c0,0.2,0,1.3,0,2.4
		V102.6z"/>
	<path class="st2" d="M126.1,101c0-1.6,0-3-0.1-3.2c0.1,0,0.4,0,0.5,0c0.4,0,0.7,0,0.8,0c0,0.4-0.1,1.7-0.1,3.3v2
		c0,1.4,0,2.9,0.1,3.3c-0.1,0-0.4,0-0.6,0c-0.3,0-0.6,0-0.7,0c0.1-0.4,0.1-1.8,0.1-3.3V101z"/>
	<path class="st2" d="M132.5,102.1c0-2.4,1.6-4.5,4.6-4.5c2.7,0,4.5,1.9,4.5,4.2c0,2.6-1.7,4.6-4.6,4.6
		C133.9,106.4,132.5,104.1,132.5,102.1z M140.3,102.1c0-2.3-1.5-3.8-3.4-3.8c-2,0-3.2,1.5-3.2,3.6c0,2.3,1.4,3.9,3.4,3.9
		C138.6,105.7,140.3,104.8,140.3,102.1z"/>
	<path class="st2" d="M146.2,104.7c0.3,0.4,1.1,0.9,2,0.9c1.1,0,1.6-0.7,1.6-1.5c0-0.7-0.2-1.1-1.2-1.8l-0.6-0.4
		c-1.2-0.8-1.6-1.5-1.6-2.3c0-1.2,0.9-2.2,2.6-2.2c0.5,0,0.9,0.1,1.1,0.1c0.3,0.1,0.5,0.1,0.6,0.1c0,0.1-0.1,0.7-0.1,1.2
		c-0.2-0.3-0.8-0.7-1.7-0.7c-0.9,0-1.4,0.5-1.4,1.2c0,0.6,0.1,1,1.2,1.7l0.6,0.4c1.4,0.9,1.7,1.6,1.7,2.4c0,0.5-0.3,1.4-1.1,2
		c-0.5,0.3-1.2,0.5-1.8,0.5c-0.8,0-1.5-0.2-1.9-0.5C146.2,105.8,146.2,105.1,146.2,104.7z"/>
</g>
<g>
	<path d="M28.2,74.2c5,0,6.5,1.6,6.5,7.7v1.9c0,3.9-0.6,6.5-2.3,8.1h2.3V97c0,5.1,1.5,6.4,1.5,6.4h-3.8c0,0-1.5-0.6-1.5-6.4v-1.9
		h-1.6h-2v8.3h-3.9v-8.3h-2.8l1.5-4.4h1.3V74.2H28.2z M27.3,78.6v12.1c0.2,0,0.9,0,0.9,0c1.9,0,2.7-2.4,2.7-7.4v-1.8
		c0-2.4-0.4-2.9-2.5-2.9H27.3z"/>
	<path d="M43.3,80.9c0-5.8,2.7-7.4,5.6-7.4c2.8,0,5.7,1.3,5.7,7.4v22.5h-3.8v-8.3h-3.6v8.3h-3.9V80.9z M50.7,80.6
		c0-2.1-0.7-2.6-1.8-2.6c-1.2,0-1.8,0.6-1.8,2.6v10.1c2.8,0,3.6,0,3.6,0V80.6z"/>
	<path d="M72.3,78.6h-3.2v24.8h-3.8V78.6h-4.2l1.5-4.5h9.7V78.6z"/>
</g>
</svg>
